# xmcd
#
# Track frame offsets:
#	150
#	12868
#	27035
#	44304
#	60236
#	74580
#	94448
#	111286
#	128430
#	146674
#	166783
#	188019
#	201256
#	217987
#	231037
#	248785
#
# Disc length: 3467 seconds
#
# Revision: 1
# Processed by: cddbd v1.5.1PL0 Copyright (c) Steve Scherf et al.
# Submitted via: CDex 1.50Beta5
#
DISCID=d60d8910
DTITLE=NSP - NSPベストセレクション 1973〜1986 Disc 1
DYEAR=2003
DGENRE=
TTITLE0=シャツのほころび涙のかけら
TTITLE1=線香花火
TTITLE2=八月の空へ翔べ
TTITLE3=白い椅子の影
TTITLE4=夕暮れ時はさびしそう
TTITLE5=蒼き空は永遠に
TTITLE6=バブル -Jに捧ぐ-
TTITLE7=FLY TO THE MOON
TTITLE8=北北東の風
TTITLE9=愛のナイフ
TTITLE10=遠野物語
TTITLE11=あの夜と同じように
TTITLE12=はじまりは朝
TTITLE13=青い涙の味がする
TTITLE14=歌は世につれ
TTITLE15=如月の詩
EXTD=
EXTT0=
EXTT1=
EXTT2=
EXTT3=
EXTT4=
EXTT5=
EXTT6=
EXTT7=
EXTT8=
EXTT9=
EXTT10=
EXTT11=
EXTT12=
EXTT13=
EXTT14=
EXTT15=
PLAYORDER=
